<svg width="77" height="20" viewBox="0 0 77 20" fill="none" xmlns="http://www.w3.org/2000/svg">
<path d="M2.3341 19.2991V13.8307H0V13.2168H5.56267V13.8307H3.22849V19.2991H2.3341Z" fill="#FF64DD"/>
<path d="M8.04661 19.3922C7.12309 19.3922 6.43233 19.2001 5.97426 18.8161C5.51611 18.432 5.28711 17.8401 5.28711 17.0405C5.28711 16.3227 5.48344 15.7592 5.87609 15.3499C6.27597 14.9344 6.90501 14.7266 7.76304 14.7266C8.272 14.7266 8.6901 14.8084 9.01734 14.9722C9.3518 15.1295 9.5991 15.3499 9.75907 15.6333C9.92626 15.9103 10.0099 16.2251 10.0099 16.5777V17.4183H6.1815C6.21056 17.7583 6.29419 18.0259 6.43233 18.2211C6.57777 18.4162 6.79224 18.5579 7.07589 18.6461C7.36669 18.7279 7.74851 18.7688 8.22111 18.7688C8.7519 18.7688 9.23911 18.6901 9.68265 18.5327V19.1372C9.45727 19.219 9.20275 19.282 8.91917 19.3261C8.64282 19.3701 8.35202 19.3922 8.04661 19.3922ZM6.1815 16.8611H9.21366V16.4927C9.21366 16.1275 9.10097 15.8473 8.87551 15.6522C8.65743 15.4507 8.29383 15.3499 7.78479 15.3499C7.16675 15.3499 6.74504 15.4759 6.51957 15.7277C6.29419 15.9795 6.1815 16.3573 6.1815 16.8611Z" fill="#FF64DD"/>
<path d="M13.7629 19.3922C12.8613 19.3922 12.1923 19.1907 11.756 18.7877C11.3197 18.3785 11.1016 17.8023 11.1016 17.0594C11.1016 16.2723 11.3488 15.6868 11.8433 15.3027C12.3377 14.9187 13.003 14.7266 13.8393 14.7266C14.1811 14.7266 14.4647 14.7486 14.69 14.7927C14.9154 14.8305 15.1336 14.8934 15.3444 14.9816V15.5955C14.9518 15.4318 14.5046 15.3499 14.0029 15.3499C13.363 15.3499 12.8685 15.4822 12.5195 15.7466C12.1704 16.0048 11.996 16.4423 11.996 17.0594C11.996 17.6512 12.1487 18.0857 12.4541 18.3627C12.7595 18.6335 13.2649 18.7688 13.9701 18.7688C14.4719 18.7688 14.9336 18.687 15.3554 18.5233V19.1466C15.13 19.2285 14.8864 19.2883 14.6246 19.3261C14.3701 19.3701 14.0829 19.3922 13.7629 19.3922Z" fill="#FF64DD"/>
<path d="M16.3594 19.2992V12.9336H17.2538V15.3042C17.4938 15.1342 17.7737 14.9957 18.0937 14.8887C18.4209 14.7816 18.7989 14.728 19.228 14.728C19.8533 14.728 20.3224 14.8603 20.635 15.1248C20.9477 15.3892 21.104 15.8048 21.104 16.3714V19.2992H20.2097V16.3998C20.2097 16.0094 20.1078 15.7387 19.9043 15.5875C19.7079 15.4301 19.3807 15.3514 18.9226 15.3514C18.6318 15.3514 18.33 15.408 18.0173 15.5214C17.7119 15.6284 17.4574 15.7701 17.2538 15.9464V19.2992H16.3594Z" fill="#FF64DD"/>
<path d="M24.6701 19.3932C23.943 19.3932 23.3612 19.2547 22.925 18.9776C22.4887 18.7006 22.2705 18.3291 22.2705 17.8632C22.2705 17.435 22.4232 17.0667 22.7287 16.7582C23.034 16.4497 23.4522 16.1757 23.983 15.9365C23.6994 15.691 23.4594 15.4611 23.2631 15.2471C23.0667 15.033 22.9686 14.7748 22.9686 14.4726C22.9686 14.0948 23.1176 13.7768 23.4158 13.5187C23.7212 13.2543 24.1502 13.1221 24.7028 13.1221C25.2409 13.1221 25.659 13.2448 25.9571 13.4904C26.2551 13.7359 26.4043 14.0633 26.4043 14.4726C26.4043 14.8126 26.2991 15.0991 26.0878 15.3321C25.8771 15.565 25.5754 15.8011 25.1828 16.0404L26.9933 17.6365C27.1166 17.4036 27.1786 17.1076 27.1786 16.7487V16.6165H27.8878V16.7487C27.8878 16.9943 27.8548 17.2336 27.7896 17.4665C27.7244 17.6995 27.6294 17.901 27.5061 18.071L28.4877 18.9304L27.9419 19.3554L27.0695 18.6093C26.815 18.88 26.4844 19.0784 26.0771 19.2043C25.67 19.3303 25.2009 19.3932 24.6701 19.3932ZM24.6264 15.6626C24.9682 15.48 25.2263 15.3069 25.4009 15.1432C25.5754 14.9732 25.6627 14.7591 25.6627 14.501C25.6627 14.2617 25.5863 14.0728 25.4336 13.9343C25.2881 13.7895 25.0446 13.7171 24.7028 13.7171C24.3538 13.7171 24.0993 13.7926 23.9393 13.9437C23.7866 14.0948 23.7103 14.2806 23.7103 14.501C23.7103 14.7025 23.7902 14.8882 23.9502 15.0582C24.1175 15.2282 24.3429 15.4297 24.6264 15.6626ZM24.6701 18.836C25.0918 18.836 25.4518 18.7825 25.7499 18.6754C26.0553 18.5621 26.3132 18.3953 26.5245 18.1749L24.5283 16.4087C24.0557 16.5976 23.703 16.8022 23.4703 17.0226C23.2449 17.2367 23.1321 17.5106 23.1321 17.8443C23.1321 18.1717 23.2776 18.4204 23.5685 18.5904C23.8593 18.7541 24.2266 18.836 24.6701 18.836Z" fill="white"/>
<path d="M0.350586 8.80245V0.380859H3.1898V6.91933H7.56947V8.80245H0.350586Z" fill="white"/>
<path d="M12.1364 8.93272C10.7067 8.93272 9.64955 8.65807 8.96492 8.10883C8.29042 7.5596 7.95312 6.75754 7.95312 5.70266C7.95312 4.65654 8.29544 3.85884 8.98008 3.3096C9.66471 2.75166 10.7168 2.47266 12.1364 2.47266C13.5661 2.47266 14.6232 2.75166 15.3079 3.3096C16.0026 3.85884 16.35 4.65654 16.35 5.70266C16.35 6.75754 16.0077 7.5596 15.323 8.10883C14.6384 8.65807 13.5762 8.93272 12.1364 8.93272ZM12.1364 7.14113C12.5996 7.14113 12.9318 7.02784 13.1332 6.80113C13.3446 6.57448 13.4503 6.2083 13.4503 5.70266C13.4503 5.20578 13.3446 4.84395 13.1332 4.61731C12.9318 4.38189 12.5996 4.26418 12.1364 4.26418C11.6833 4.26418 11.3561 4.38189 11.1548 4.61731C10.9534 4.84395 10.8527 5.20578 10.8527 5.70266C10.8527 6.2083 10.9534 6.57448 11.1548 6.80113C11.3561 7.02784 11.6833 7.14113 12.1364 7.14113Z" fill="white"/>
<path d="M20.5556 11.1035C20.2032 11.1035 19.8206 11.0904 19.4078 11.0643C18.995 11.0468 18.6024 11.012 18.2299 10.9597C17.8674 10.9074 17.5654 10.8463 17.3237 10.7765V9.20731C17.5956 9.28578 17.9077 9.35119 18.26 9.40349C18.6225 9.45578 18.99 9.49501 19.3625 9.52119C19.735 9.54731 20.0773 9.56043 20.3895 9.56043C20.9231 9.56043 21.3409 9.53425 21.643 9.48196C21.9551 9.43837 22.1111 9.35555 22.1111 9.23349C22.1111 9.1289 22.0608 9.05914 21.9601 9.02425C21.8594 8.99807 21.6681 8.98502 21.3862 8.98502H19.4985C18.7635 8.98502 18.1946 8.88478 17.7919 8.68425C17.3993 8.47502 17.2029 8.16555 17.2029 7.75578C17.2029 7.18036 17.5704 6.77937 18.3054 6.55272C17.8926 6.3696 17.5906 6.1386 17.3993 5.8596C17.208 5.58066 17.1123 5.22754 17.1123 4.80036C17.1123 3.9983 17.4244 3.40983 18.0486 3.03495C18.6829 2.66013 19.5941 2.47266 20.7821 2.47266C21.0338 2.47266 21.3158 2.49006 21.6278 2.52495C21.94 2.55113 22.1665 2.57731 22.3074 2.60342H25.1165L25.056 4.09418H24.1046C24.2859 4.29471 24.3765 4.53884 24.3765 4.82655C24.3765 5.46296 24.16 5.9686 23.7271 6.34349C23.3042 6.7096 22.6347 6.89272 21.7185 6.89272C21.5876 6.89272 21.4467 6.88837 21.2956 6.8796C21.1446 6.86219 21.0036 6.84914 20.8728 6.84036C20.6512 6.85784 20.4599 6.89272 20.2989 6.94502C20.1378 6.99731 20.0572 7.08449 20.0572 7.20655C20.0572 7.29372 20.1025 7.35478 20.1932 7.3896C20.2838 7.41578 20.4096 7.42883 20.5707 7.42883H22.2168C22.9518 7.42883 23.5307 7.57708 23.9536 7.87349C24.3765 8.1699 24.5879 8.60578 24.5879 9.18119C24.5879 9.79143 24.2607 10.2622 23.6063 10.5935C22.9518 10.9335 21.935 11.1035 20.5556 11.1035ZM20.7972 5.54578C21.2402 5.54578 21.5473 5.48036 21.7185 5.3496C21.8897 5.21884 21.9752 5.0009 21.9752 4.69578C21.9752 4.3906 21.8897 4.1683 21.7185 4.02883C21.5473 3.88937 21.2402 3.8196 20.7972 3.8196C20.3845 3.8196 20.0824 3.88937 19.8911 4.02883C19.7099 4.1596 19.6193 4.38189 19.6193 4.69578C19.6193 4.99219 19.7049 5.21013 19.876 5.3496C20.0572 5.48036 20.3643 5.54578 20.7972 5.54578Z" fill="white"/>
<path d="M29.7472 8.93272C28.3172 8.93272 27.2601 8.65807 26.5753 8.10883C25.9008 7.5596 25.5635 6.75754 25.5635 5.70266C25.5635 4.65654 25.9058 3.85884 26.5903 3.3096C27.2751 2.75166 28.3274 2.47266 29.7472 2.47266C31.1765 2.47266 32.2335 2.75166 32.9183 3.3096C33.6133 3.85884 33.9604 4.65654 33.9604 5.70266C33.9604 6.75754 33.618 7.5596 32.9332 8.10883C32.2484 8.65807 31.1867 8.93272 29.7472 8.93272ZM29.7472 7.14113C30.2098 7.14113 30.542 7.02784 30.7438 6.80113C30.955 6.57448 31.061 6.2083 31.061 5.70266C31.061 5.20578 30.955 4.84395 30.7438 4.61731C30.542 4.38189 30.2098 4.26418 29.7472 4.26418C29.2941 4.26418 28.9666 4.38189 28.7648 4.61731C28.5638 4.84395 28.4632 5.20578 28.4632 5.70266C28.4632 6.2083 28.5638 6.57448 28.7648 6.80113C28.9666 7.02784 29.2941 7.14113 29.7472 7.14113Z" fill="white"/>
<path d="M35.2077 1.77847V0H38.2736V1.77847H35.2077ZM35.4339 8.80084V4.39389H34.3926L34.6337 2.60236H38.2736V8.80084H35.4339Z" fill="#FF64DD"/>
<path d="M39.6367 11.6265V2.60342H42.0987L42.2345 3.1003C42.5259 2.89983 42.8431 2.74724 43.1855 2.64266C43.5381 2.5293 43.9457 2.47266 44.409 2.47266C45.4763 2.47266 46.2969 2.708 46.871 3.17877C47.4545 3.64083 47.7466 4.42983 47.7466 5.54571C47.7466 6.65296 47.4396 7.49419 46.8255 8.0696C46.2113 8.64502 45.3656 8.93266 44.2881 8.93266C43.5735 8.93266 42.9696 8.81502 42.4756 8.5796V11.6265H39.6367ZM43.5633 7.14113C43.9763 7.14113 44.2936 7.01472 44.5151 6.76189C44.7365 6.50907 44.8473 6.11678 44.8473 5.58495C44.8473 5.0706 44.7412 4.72189 44.53 4.53884C44.3282 4.35571 44.0164 4.26418 43.5931 4.26418C43.1706 4.26418 42.7984 4.38624 42.4756 4.63036V6.82731C42.6374 6.93189 42.7984 7.01037 42.9594 7.06266C43.1204 7.11495 43.3214 7.14113 43.5633 7.14113Z" fill="#FF64DD"/>
<path d="M51.5293 8.93266C50.9152 8.93266 50.3364 8.89349 49.793 8.81502C49.259 8.74525 48.8365 8.65372 48.5239 8.54037V6.77495C48.8765 6.91449 49.2943 7.02342 49.7773 7.1019C50.2712 7.18037 50.689 7.2196 51.0306 7.2196C51.3934 7.2196 51.6652 7.2109 51.8466 7.19342C52.0382 7.17601 52.1332 7.10189 52.1332 6.97113C52.1332 6.82296 51.9675 6.7096 51.6353 6.63113C51.3031 6.55266 50.8853 6.4393 50.382 6.29113C49.727 6.0906 49.2385 5.85525 48.9166 5.58495C48.5946 5.31472 48.4336 4.92243 48.4336 4.40801C48.4336 3.78907 48.7155 3.31395 49.2794 2.98266C49.8432 2.64266 50.7291 2.47266 51.9369 2.47266C52.4002 2.47266 52.8784 2.50312 53.3716 2.56418C53.8648 2.62518 54.2527 2.69495 54.5347 2.77342V4.4996C54.2323 4.38625 53.9001 4.30342 53.5381 4.25113C53.1855 4.19877 52.8635 4.17266 52.5714 4.17266C52.2494 4.17266 51.962 4.18571 51.7107 4.21189C51.4586 4.23801 51.333 4.31212 51.333 4.43418C51.333 4.57365 51.4743 4.67395 51.7562 4.73495C52.0476 4.79601 52.4355 4.89189 52.9185 5.02266C53.4627 5.16213 53.8852 5.31472 54.1876 5.48037C54.4993 5.64601 54.7161 5.84648 54.837 6.0819C54.9674 6.31731 55.0333 6.6093 55.0333 6.95807C55.0333 7.58578 54.7357 8.07396 54.142 8.42266C53.5577 8.76266 52.6868 8.93266 51.5293 8.93266Z" fill="#FF64DD"/>
<path d="M58.6919 8.93275C57.8564 8.93275 57.2022 8.72793 56.7287 8.31817C56.2559 7.9084 56.0195 7.30687 56.0195 6.51351V2.60352H58.8584V6.3174C58.8584 6.85787 59.1757 7.12817 59.8094 7.12817C60.0411 7.12817 60.2681 7.08458 60.4895 6.9974C60.711 6.91023 60.8869 6.80122 61.018 6.67046V2.60352H63.8569V8.80199H61.1994L61.124 8.33122C60.8421 8.50557 60.4942 8.64946 60.0819 8.76275C59.6791 8.87611 59.2157 8.93275 58.6919 8.93275Z" fill="#FF64DD"/>
<path d="M65.21 8.80189V2.60342H67.8376L67.913 3.1003C68.2256 2.91724 68.5727 2.76907 68.9551 2.65571C69.3478 2.53365 69.7758 2.47266 70.2391 2.47266C70.7016 2.47266 71.0644 2.5293 71.326 2.64266C71.5882 2.75594 71.7995 2.92159 71.9605 3.13953C72.2825 2.93907 72.6453 2.77777 73.0481 2.65571C73.4604 2.53365 73.9442 2.47266 74.4978 2.47266C75.3334 2.47266 75.9475 2.66442 76.3402 3.048C76.7328 3.42289 76.9292 3.9983 76.9292 4.77418V8.80189H74.135V5.06189C74.135 4.78289 74.0698 4.58678 73.9387 4.47342C73.8083 4.35136 73.5916 4.29036 73.2892 4.29036C72.8966 4.29036 72.5746 4.41242 72.3233 4.65648C72.3429 4.76983 72.3532 4.87884 72.3532 4.98342C72.3532 5.0793 72.3532 5.1883 72.3532 5.31036V8.80189H69.7255V5.02266C69.7255 4.76983 69.6752 4.58678 69.5747 4.47342C69.4734 4.35136 69.2826 4.29036 69.0007 4.29036C68.809 4.29036 68.6229 4.33395 68.4415 4.42113C68.2601 4.5083 68.0991 4.61289 67.9585 4.73495V8.80189H65.21Z" fill="#FF64DD"/>
<path d="M33.1119 19.4723C32.3557 19.4723 31.7267 19.3495 31.2248 19.104C30.7309 18.8521 30.3602 18.5027 30.1129 18.0556C29.8655 17.6023 29.7422 17.0734 29.7422 16.469C29.7422 15.8079 29.8584 15.2317 30.0909 14.7406C30.3233 14.2495 30.6869 13.8717 31.1817 13.6073C31.6764 13.3366 32.3156 13.2012 33.101 13.2012C33.5085 13.2012 33.8753 13.2263 34.2027 13.2767C34.5373 13.3271 34.8498 13.3963 35.1412 13.4845V14.1645C34.8498 14.0701 34.5412 13.9977 34.2137 13.9473C33.8863 13.8906 33.5415 13.8623 33.1779 13.8623C32.545 13.8623 32.0431 13.9662 31.6725 14.174C31.3018 14.3817 31.0364 14.6808 30.8762 15.0712C30.716 15.4616 30.6359 15.9275 30.6359 16.469C30.6359 17.2182 30.84 17.7975 31.2468 18.2068C31.6615 18.6098 32.3125 18.8112 33.1991 18.8112C33.5266 18.8112 33.8572 18.7891 34.1918 18.7451C34.5334 18.701 34.8498 18.6318 35.1412 18.5373V19.2268C34.8569 19.3023 34.5483 19.3621 34.2137 19.4062C33.8863 19.4503 33.5195 19.4723 33.1119 19.4723Z" fill="#FF64DD"/>
<path d="M38.8149 19.4713C37.9134 19.4713 37.2553 19.2729 36.8407 18.8763C36.4339 18.4733 36.2305 17.894 36.2305 17.1385C36.2305 16.3892 36.4378 15.8131 36.8516 15.4101C37.2663 15.0071 37.9212 14.8057 38.8149 14.8057C39.7094 14.8057 40.3643 15.0071 40.7782 15.4101C41.1928 15.8131 41.4002 16.3892 41.4002 17.1385C41.4002 17.894 41.1968 18.4733 40.7892 18.8763C40.3824 19.2729 39.7243 19.4713 38.8149 19.4713ZM38.8149 18.8102C39.433 18.8102 39.8696 18.6779 40.124 18.4135C40.3785 18.1428 40.5057 17.7178 40.5057 17.1385C40.5057 16.5592 40.3753 16.1374 40.113 15.8729C39.8586 15.6021 39.4259 15.4668 38.8149 15.4668C38.2047 15.4668 37.7681 15.6021 37.5066 15.8729C37.2522 16.1374 37.1249 16.5592 37.1249 17.1385C37.1249 17.7178 37.2522 18.1428 37.5066 18.4135C37.761 18.6779 38.1969 18.8102 38.8149 18.8102Z" fill="#FF64DD"/>
<path d="M42.4922 19.3772V18.7256H43.2995V19.3772H42.4922Z" fill="#FF64DD"/>
</svg>
