<svg width="11" height="11" viewBox="0 0 11 11" fill="none" xmlns="http://www.w3.org/2000/svg">
<path fill-rule="evenodd" clip-rule="evenodd" d="M6.07612 5.5587C6.14308 5.62566 6.17657 5.70267 6.17657 5.78973C6.17657 5.87678 6.14308 5.95379 6.07612 6.02075L1.39531 10.7016C1.32835 10.7685 1.25134 10.802 1.16429 10.802C1.07723 10.802 1.00023 10.7685 0.933261 10.7016L0.431028 10.1993C0.364064 10.1324 0.330582 10.0554 0.330582 9.9683C0.330582 9.88124 0.364064 9.80424 0.431028 9.73727L4.37857 5.78973L0.431028 1.84218C0.364064 1.77522 0.330582 1.69821 0.330582 1.61116C0.330582 1.5241 0.364064 1.44709 0.431028 1.38013L0.933261 0.877897C1.00023 0.810933 1.07723 0.777451 1.16429 0.777451C1.25134 0.777451 1.32835 0.810933 1.39531 0.877897L6.07612 5.5587ZM9.93326 5.5587C10.0002 5.62566 10.0337 5.70267 10.0337 5.78973C10.0337 5.87678 10.0002 5.95379 9.93326 6.02075L5.25246 10.7016C5.18549 10.7685 5.10848 10.802 5.02143 10.802C4.93438 10.802 4.85737 10.7685 4.7904 10.7016L4.28817 10.1993C4.22121 10.1324 4.18772 10.0554 4.18772 9.9683C4.18772 9.88124 4.22121 9.80424 4.28817 9.73727L8.23571 5.78973L4.28817 1.84218C4.22121 1.77522 4.18772 1.69821 4.18772 1.61116C4.18772 1.5241 4.22121 1.44709 4.28817 1.38013L4.7904 0.877897C4.85737 0.810933 4.93438 0.777451 5.02143 0.777451C5.10848 0.777451 5.18549 0.810933 5.25246 0.877897L9.93326 5.5587Z" fill="#AE79D7"/>
</svg>
