<svg width="6" height="10" viewBox="0 0 6 10" fill="none" xmlns="http://www.w3.org/2000/svg">
<path fill-rule="evenodd" clip-rule="evenodd" d="M5.90649 4.78488C5.96884 4.84723 6.00001 4.91893 6.00001 4.99998C6.00001 5.08103 5.96884 5.15273 5.90649 5.21508L1.54844 9.57313C1.4861 9.63547 1.4144 9.66665 1.33335 9.66665C1.2523 9.66665 1.1806 9.63547 1.11825 9.57313L0.650649 9.10552C0.588302 9.04318 0.557129 8.97148 0.557129 8.89043C0.557129 8.80938 0.588302 8.73768 0.650649 8.67533L4.326 4.99998L0.650649 1.32463C0.588302 1.26228 0.557129 1.19058 0.557129 1.10953C0.557129 1.02848 0.588302 0.956782 0.650649 0.894435L1.11825 0.426833C1.1806 0.364486 1.2523 0.333313 1.33335 0.333313C1.4144 0.333313 1.4861 0.364486 1.54844 0.426833L5.90649 4.78488Z" fill="#6A7178"/>
<mask id="mask0_118_1436" style="mask-type:luminance" maskUnits="userSpaceOnUse" x="0" y="0" width="6" height="10">
<path fill-rule="evenodd" clip-rule="evenodd" d="M5.90649 4.78488C5.96884 4.84723 6.00001 4.91893 6.00001 4.99998C6.00001 5.08103 5.96884 5.15273 5.90649 5.21508L1.54844 9.57313C1.4861 9.63547 1.4144 9.66665 1.33335 9.66665C1.2523 9.66665 1.1806 9.63547 1.11825 9.57313L0.650649 9.10552C0.588302 9.04318 0.557129 8.97148 0.557129 8.89043C0.557129 8.80938 0.588302 8.73768 0.650649 8.67533L4.326 4.99998L0.650649 1.32463C0.588302 1.26228 0.557129 1.19058 0.557129 1.10953C0.557129 1.02848 0.588302 0.956782 0.650649 0.894435L1.11825 0.426833C1.1806 0.364486 1.2523 0.333313 1.33335 0.333313C1.4144 0.333313 1.4861 0.364486 1.54844 0.426833L5.90649 4.78488Z" fill="white"/>
</mask>
<g mask="url(#mask0_118_1436)">
</g>
</svg>
