<svg width="11" height="15" viewBox="0 0 11 15" fill="none" xmlns="http://www.w3.org/2000/svg">
<path fill-rule="evenodd" clip-rule="evenodd" d="M10.1949 8.90512C10.3221 9.03235 10.3857 9.18302 10.3857 9.35713C10.3857 9.53124 10.3221 9.68191 10.1949 9.80914L5.69487 14.3091C5.56764 14.4364 5.41697 14.5 5.24286 14.5C5.06876 14.5 4.91809 14.4364 4.79085 14.3091L0.290854 9.80914C0.163622 9.68191 0.100006 9.53124 0.100006 9.35713C0.100006 9.18302 0.163622 9.03235 0.290854 8.90512C0.418086 8.77789 0.568756 8.71427 0.742863 8.71427H9.74286C9.91697 8.71427 10.0676 8.77789 10.1949 8.90512ZM10.1949 5.04798C10.3221 5.17521 10.3857 5.32588 10.3857 5.49999C10.3857 5.6741 10.3221 5.82477 10.1949 5.952C10.0676 6.07923 9.91697 6.14285 9.74286 6.14285H0.742863C0.568756 6.14285 0.418086 6.07923 0.290854 5.952C0.163622 5.82477 0.100006 5.6741 0.100006 5.49999C0.100006 5.32588 0.163622 5.17521 0.290854 5.04798L4.79085 0.54798C4.91809 0.420748 5.06876 0.357132 5.24286 0.357132C5.41697 0.357132 5.56764 0.420748 5.69487 0.54798L10.1949 5.04798Z" fill="#272B30"/>
</svg>
