<svg width="11" height="7" viewBox="0 0 11 7" fill="none" xmlns="http://www.w3.org/2000/svg">
<path fill-rule="evenodd" clip-rule="evenodd" d="M10.7975 0.887286C10.8645 0.95425 10.898 1.03126 10.898 1.11831C10.898 1.20537 10.8645 1.28238 10.7975 1.34934L6.11672 6.03014C6.04975 6.09711 5.97274 6.13059 5.88569 6.13059C5.79864 6.13059 5.72163 6.09711 5.65466 6.03014L0.97386 1.34934C0.906895 1.28238 0.873413 1.20537 0.873413 1.11831C0.873413 1.03126 0.906895 0.95425 0.97386 0.887286L1.47609 0.385054C1.54306 0.318089 1.62007 0.284607 1.70712 0.284607C1.79417 0.284607 1.87118 0.318089 1.93815 0.385054L5.88569 4.3326L9.83323 0.385054C9.9002 0.318089 9.97721 0.284607 10.0643 0.284607C10.1513 0.284607 10.2283 0.318089 10.2953 0.385054L10.7975 0.887286Z" fill="#15181A"/>
</svg>
