<svg width="14" height="16" viewBox="0 0 14 16" fill="none" xmlns="http://www.w3.org/2000/svg">
<path fill-rule="evenodd" clip-rule="evenodd" d="M1.42851 14.1715H3.7428V11.8572H1.42851V14.1715ZM4.25709 14.1715H6.82851V11.8572H4.25709V14.1715ZM1.42851 11.3429H3.7428V8.77149H1.42851V11.3429ZM4.25709 11.3429H6.82851V8.77149H4.25709V11.3429ZM1.42851 8.25721H3.7428V5.94292H1.42851V8.25721ZM7.34279 14.1715H9.91421V11.8572H7.34279V14.1715ZM4.25707 8.25721H6.8285V5.94292H4.25707V8.25721ZM10.4285 14.1715H12.7428V11.8572H10.4285V14.1715ZM7.34277 11.3429H9.9142V8.77148H7.34277V11.3429ZM4.51419 4.40004V2.08575C4.51419 2.01611 4.48875 1.95584 4.43785 1.90495C4.38696 1.85406 4.32669 1.82861 4.25705 1.82861H3.74276C3.67312 1.82861 3.61285 1.85406 3.56196 1.90495C3.51107 1.95584 3.48562 2.01611 3.48562 2.08575V4.40004C3.48562 4.46968 3.51107 4.52995 3.56196 4.58084C3.61285 4.63174 3.67312 4.65718 3.74276 4.65718H4.25705C4.32669 4.65718 4.38696 4.63174 4.43785 4.58084C4.48875 4.52995 4.51419 4.46968 4.51419 4.40004ZM10.4285 11.3429H12.7428V8.77148H10.4285V11.3429ZM7.34275 8.25719H9.91418V5.94291H7.34275V8.25719ZM10.4285 8.25719H12.7428V5.94291H10.4285V8.25719ZM10.6856 4.40005V2.08576C10.6856 2.01612 10.6602 1.95585 10.6093 1.90496C10.5584 1.85407 10.4981 1.82862 10.4285 1.82862H9.91418C9.84454 1.82862 9.78427 1.85407 9.73338 1.90496C9.68248 1.95585 9.65704 2.01612 9.65704 2.08576V4.40005C9.65704 4.46969 9.68248 4.52996 9.73338 4.58085C9.78427 4.63175 9.84454 4.65719 9.91418 4.65719H10.4285C10.4981 4.65719 10.5584 4.63175 10.6093 4.58085C10.6602 4.52996 10.6856 4.46969 10.6856 4.40005ZM13.7713 3.88576V14.1715C13.7713 14.4501 13.6695 14.6911 13.466 14.8947C13.2624 15.0983 13.0213 15.2001 12.7428 15.2001H1.42848C1.1499 15.2001 0.908832 15.0983 0.70526 14.8947C0.501688 14.6911 0.399902 14.4501 0.399902 14.1715V3.88576C0.399902 3.60719 0.501688 3.36612 0.70526 3.16255C0.908831 2.95898 1.1499 2.85719 1.42848 2.85719H2.45705V2.08576C2.45705 1.73219 2.58294 1.42951 2.83473 1.17773C3.08651 0.925942 3.38919 0.800049 3.74276 0.800049H4.25705C4.61062 0.800049 4.9133 0.925942 5.16508 1.17773C5.41687 1.42951 5.54276 1.73219 5.54276 2.08576V2.85719H8.62848V2.08576C8.62848 1.73219 8.75437 1.42951 9.00616 1.17773C9.25794 0.925942 9.56062 0.800049 9.91419 0.800049H10.4285C10.782 0.800049 11.0847 0.925942 11.3365 1.17773C11.5883 1.42951 11.7142 1.73219 11.7142 2.08576V2.85719H12.7428C13.0213 2.85719 13.2624 2.95898 13.466 3.16255C13.6696 3.36612 13.7713 3.60719 13.7713 3.88576H13.7713Z" fill="#7030A0"/>
</svg>
