<svg width="18" height="28" viewBox="0 0 18 28" fill="none" xmlns="http://www.w3.org/2000/svg">
<path fill-rule="evenodd" clip-rule="evenodd" d="M17.1873 5.3382L8.29781 14.2277L17.1873 23.1172C17.3994 23.3293 17.5054 23.5804 17.5054 23.8706C17.5054 24.1607 17.3994 24.4119 17.1873 24.6239L14.4083 27.4029C14.1962 27.615 13.9451 27.721 13.6549 27.721C13.3648 27.721 13.1137 27.615 12.9016 27.4029L0.479701 14.981C0.267648 14.769 0.161621 14.5179 0.161621 14.2277C0.161621 13.9375 0.267648 13.6864 0.479701 13.4743L12.9016 1.05244C13.1137 0.840386 13.3648 0.73436 13.6549 0.73436C13.9451 0.73436 14.1962 0.840386 14.4083 1.05244L17.1873 3.83146C17.3994 4.04351 17.5054 4.29463 17.5054 4.58481C17.5054 4.87499 17.3994 5.1261 17.1873 5.33816V5.3382Z" fill="#7030A0"/>
</svg>
