<svg width="15" height="22" viewBox="0 0 15 22" fill="none" xmlns="http://www.w3.org/2000/svg">
<path fill-rule="evenodd" clip-rule="evenodd" d="M13.8259 11.7848L3.88842 21.7223C3.71878 21.8919 3.51788 21.9767 3.28574 21.9767C3.0536 21.9767 2.85271 21.8919 2.68306 21.7223L0.459847 19.4991C0.290205 19.3294 0.205383 19.1285 0.205383 18.8964C0.205383 18.6642 0.290205 18.4633 0.459847 18.2937L7.57146 11.1821L0.459847 4.07049C0.290205 3.90085 0.205383 3.69995 0.205383 3.46781C0.205383 3.23567 0.290205 3.03477 0.459847 2.86513L2.68306 0.641915C2.85271 0.472273 3.0536 0.387451 3.28574 0.387451C3.51788 0.387451 3.71878 0.472273 3.88842 0.641915L13.8259 10.5794C13.9956 10.7491 14.0804 10.95 14.0804 11.1821C14.0804 11.4143 13.9956 11.6151 13.8259 11.7848V11.7848Z" fill="#7030A0"/>
</svg>
