<svg width="18" height="15" viewBox="0 0 18 15" fill="none" xmlns="http://www.w3.org/2000/svg">
<path fill-rule="evenodd" clip-rule="evenodd" d="M18 5.36026V13.3357C18 13.7777 17.8426 14.156 17.5279 14.4707C17.2132 14.7855 16.8348 14.9428 16.3929 14.9428H1.60711C1.16515 14.9428 0.7868 14.7855 0.472068 14.4707C0.157335 14.156 -3.05176e-05 13.7777 -3.05176e-05 13.3357V5.36026C0.294612 5.68839 0.632782 5.97968 1.01448 6.23414C3.43859 7.88146 5.10265 9.0366 6.00667 9.69955C6.38836 9.9808 6.69807 10.2001 6.9358 10.3575C7.17352 10.5148 7.48992 10.6755 7.88501 10.8396C8.2801 11.0037 8.64841 11.0857 8.98993 11.0857H8.99997H9.01001C9.35153 11.0857 9.71984 11.0037 10.1149 10.8396C10.51 10.6755 10.8264 10.5148 11.0641 10.3575C11.3019 10.2001 11.6116 9.9808 11.9933 9.69955C13.1317 8.87589 14.7991 7.72075 16.9955 6.23414C17.3772 5.97298 17.712 5.68169 18 5.36026H18ZM18 2.40713C18 2.93615 17.8359 3.44173 17.5078 3.92387C17.1797 4.40602 16.7712 4.81785 16.2824 5.15936C13.7645 6.90713 12.1976 7.9953 11.5815 8.42387C11.5145 8.47075 11.3722 8.57287 11.1546 8.73023C10.937 8.8876 10.7561 9.01483 10.6122 9.11193C10.4682 9.20903 10.2941 9.31785 10.0899 9.43838C9.88561 9.55892 9.69309 9.64932 9.51229 9.70959C9.33148 9.76986 9.16407 9.79999 9.01005 9.79999H9.00001H8.98996C8.83595 9.79999 8.66853 9.76986 8.48773 9.70959C8.30693 9.64932 8.11441 9.55892 7.91016 9.43838C7.70592 9.31785 7.53182 9.20903 7.38784 9.11193C7.24387 9.01483 7.06307 8.8876 6.84543 8.73023C6.6278 8.57287 6.4855 8.47075 6.41853 8.42387C5.80916 7.9953 4.93193 7.38425 3.78684 6.59072C2.64175 5.7972 1.95537 5.32008 1.72769 5.15936C1.31251 4.87811 0.920764 4.4914 0.55246 3.99921C0.184156 3.50702 4.28242e-06 3.04999 4.28242e-06 2.62811C4.28242e-06 2.10579 0.138955 1.67053 0.416857 1.32231C0.694758 0.974095 1.09152 0.799988 1.60715 0.799988H16.3929C16.8282 0.799988 17.2048 0.957354 17.5229 1.27209C17.841 1.58682 18 1.96517 18 2.40713L18 2.40713Z" fill="#009DDE"/>
</svg>
