<svg width="6" height="10" viewBox="0 0 6 10" fill="none" xmlns="http://www.w3.org/2000/svg">
<path fill-rule="evenodd" clip-rule="evenodd" d="M5.46362 0.894435C5.52597 0.956782 5.55714 1.02848 5.55714 1.10953C5.55714 1.19058 5.52597 1.26228 5.46362 1.32463L1.78827 4.99998L5.46362 8.67533C5.52597 8.73768 5.55714 8.80938 5.55714 8.89043C5.55714 8.97148 5.52597 9.04318 5.46362 9.10552L4.99602 9.57313C4.93367 9.63547 4.86198 9.66665 4.78092 9.66665C4.69987 9.66665 4.62818 9.63547 4.56583 9.57313L0.207778 5.21508C0.145431 5.15273 0.114258 5.08103 0.114258 4.99998C0.114258 4.91893 0.145431 4.84723 0.207778 4.78488L4.56583 0.426833C4.62818 0.364486 4.69987 0.333313 4.78092 0.333313C4.86198 0.333313 4.93367 0.364486 4.99602 0.426833L5.46362 0.894435Z" fill="#ADB5BD"/>
<mask id="mask0_118_1420" style="mask-type:luminance" maskUnits="userSpaceOnUse" x="0" y="0" width="6" height="10">
<path fill-rule="evenodd" clip-rule="evenodd" d="M5.46362 0.894435C5.52597 0.956782 5.55714 1.02848 5.55714 1.10953C5.55714 1.19058 5.52597 1.26228 5.46362 1.32463L1.78827 4.99998L5.46362 8.67533C5.52597 8.73768 5.55714 8.80938 5.55714 8.89043C5.55714 8.97148 5.52597 9.04318 5.46362 9.10552L4.99602 9.57313C4.93367 9.63547 4.86198 9.66665 4.78092 9.66665C4.69987 9.66665 4.62818 9.63547 4.56583 9.57313L0.207778 5.21508C0.145431 5.15273 0.114258 5.08103 0.114258 4.99998C0.114258 4.91893 0.145431 4.84723 0.207778 4.78488L4.56583 0.426833C4.62818 0.364486 4.69987 0.333313 4.78092 0.333313C4.86198 0.333313 4.93367 0.364486 4.99602 0.426833L5.46362 0.894435Z" fill="white"/>
</mask>
<g mask="url(#mask0_118_1420)">
</g>
</svg>
