<svg width="15" height="15" viewBox="0 0 15 15" fill="none" xmlns="http://www.w3.org/2000/svg">
<path fill-rule="evenodd" clip-rule="evenodd" d="M14.9428 11.4839C14.9428 11.6647 14.9094 11.9008 14.8424 12.1921C14.7754 12.4834 14.7051 12.7127 14.6315 12.8801C14.4908 13.2149 14.0824 13.5699 13.406 13.9448C12.7766 14.2864 12.1538 14.4571 11.5377 14.4571C11.3569 14.4571 11.1811 14.4454 11.0104 14.422C10.8396 14.3985 10.6471 14.3567 10.4328 14.2964C10.2185 14.2361 10.0595 14.1876 9.95568 14.1508C9.85188 14.1139 9.66606 14.0453 9.3982 13.9448C9.13034 13.8444 8.96628 13.7841 8.90601 13.764C8.24977 13.5297 7.66383 13.2518 7.1482 12.9303C6.29106 12.4013 5.40545 11.6798 4.49139 10.7657C3.57733 9.85166 2.85579 8.96605 2.32677 8.10891C2.00535 7.59329 1.72744 7.00735 1.49307 6.3511C1.47298 6.29083 1.41271 6.12677 1.31226 5.85891C1.21182 5.59105 1.14318 5.40523 1.10635 5.30143C1.06952 5.19764 1.02097 5.0386 0.960702 4.82431C0.900434 4.61003 0.858581 4.41751 0.835144 4.24675C0.811707 4.07599 0.799988 3.90021 0.799988 3.7194C0.799988 3.10333 0.970747 2.48056 1.31226 1.8511C1.68726 1.17476 2.04217 0.766278 2.37699 0.625654C2.54441 0.551993 2.77376 0.481681 3.06505 0.414717C3.35635 0.347752 3.5924 0.31427 3.7732 0.31427C3.86695 0.31427 3.93726 0.324315 3.98414 0.344404C4.10467 0.384582 4.28213 0.639046 4.5165 1.1078C4.59017 1.23503 4.69061 1.41583 4.81784 1.65021C4.94508 1.88458 5.06226 2.09719 5.16941 2.28804C5.27655 2.47889 5.38034 2.65802 5.48079 2.82543C5.50088 2.85222 5.55947 2.93592 5.65657 3.07655C5.75367 3.21717 5.82566 3.33603 5.87253 3.43313C5.91941 3.53023 5.94284 3.62565 5.94284 3.7194C5.94284 3.85333 5.84742 4.02074 5.65657 4.22164C5.46572 4.42253 5.25813 4.60668 5.0338 4.77409C4.80947 4.9415 4.60188 5.11896 4.41103 5.30646C4.22018 5.49396 4.12476 5.64798 4.12476 5.76851C4.12476 5.82878 4.1415 5.90411 4.17498 5.99452C4.20846 6.08492 4.23692 6.15356 4.26036 6.20043C4.2838 6.24731 4.33067 6.32766 4.40099 6.4415C4.4713 6.55534 4.5098 6.61896 4.5165 6.63235C5.02543 7.54976 5.60802 8.33659 6.26427 8.99284C6.92052 9.64909 7.70735 10.2317 8.62476 10.7406C8.63815 10.7473 8.70177 10.7858 8.81561 10.8561C8.92945 10.9264 9.0098 10.9733 9.05668 10.9967C9.10355 11.0202 9.17219 11.0486 9.26259 11.0821C9.353 11.1156 9.42833 11.1324 9.4886 11.1324C9.60913 11.1324 9.76315 11.0369 9.95065 10.8461C10.1382 10.6552 10.3156 10.4476 10.483 10.2233C10.6504 9.99898 10.8346 9.79139 11.0355 9.60054C11.2364 9.40969 11.4038 9.31427 11.5377 9.31427C11.6315 9.31427 11.7269 9.3377 11.824 9.38458C11.9211 9.43145 12.0399 9.50344 12.1806 9.60054C12.3212 9.69764 12.4049 9.75623 12.4317 9.77632C12.5991 9.87677 12.7782 9.98056 12.9691 10.0877C13.1599 10.1948 13.3725 10.312 13.6069 10.4393C13.8413 10.5665 14.0221 10.6669 14.1493 10.7406C14.6181 10.975 14.8725 11.1524 14.9127 11.273C14.9328 11.3198 14.9428 11.3902 14.9428 11.4839L14.9428 11.4839Z" fill="#009DDE"/>
</svg>
