<svg width="11" height="15" viewBox="0 0 11 15" fill="none" xmlns="http://www.w3.org/2000/svg">
<mask id="path-1-inside-1_100_850" fill="white">
<path fill-rule="evenodd" clip-rule="evenodd" d="M10.1949 8.90512C10.3221 9.03235 10.3857 9.18302 10.3857 9.35713C10.3857 9.53124 10.3221 9.68191 10.1949 9.80914L5.69487 14.3091C5.56764 14.4364 5.41697 14.5 5.24286 14.5C5.06876 14.5 4.91809 14.4364 4.79085 14.3091L0.290854 9.80914C0.163622 9.68191 0.100006 9.53124 0.100006 9.35713C0.100006 9.18302 0.163622 9.03235 0.290854 8.90512C0.418086 8.77789 0.568756 8.71427 0.742863 8.71427H9.74286C9.91697 8.71427 10.0676 8.77789 10.1949 8.90512ZM10.1949 5.04798C10.3221 5.17521 10.3857 5.32588 10.3857 5.49999C10.3857 5.6741 10.3221 5.82477 10.1949 5.952C10.0676 6.07923 9.91697 6.14285 9.74286 6.14285H0.742863C0.568756 6.14285 0.418086 6.07923 0.290854 5.952C0.163622 5.82477 0.100006 5.6741 0.100006 5.49999C0.100006 5.32588 0.163622 5.17521 0.290854 5.04798L4.79085 0.54798C4.91809 0.420748 5.06876 0.357132 5.24286 0.357132C5.41697 0.357132 5.56764 0.420748 5.69487 0.54798L10.1949 5.04798Z"/>
</mask>
<path d="M10.1949 9.80914L10.902 10.5162L10.1949 9.80914ZM5.69487 14.3091L4.98777 13.602L5.69487 14.3091ZM4.79085 14.3091L5.49796 13.602L4.79085 14.3091ZM0.290854 9.80914L-0.416253 10.5162L0.290854 9.80914ZM10.1949 5.04798L10.902 4.34087L10.1949 5.04798ZM0.290854 5.04798L-0.416253 4.34087L0.290854 5.04798ZM4.79085 0.54798L5.49796 1.25509L4.79085 0.54798ZM5.69487 0.54798L4.98777 1.25509L5.69487 0.54798ZM9.48777 9.61223C9.46931 9.59377 9.43995 9.55744 9.41676 9.50252C9.3933 9.44695 9.38572 9.39495 9.38572 9.35713H11.3857C11.3857 8.90805 11.2097 8.50577 10.902 8.19801L9.48777 9.61223ZM9.38572 9.35713C9.38572 9.31931 9.3933 9.26731 9.41676 9.21174C9.43995 9.15682 9.46931 9.12049 9.48777 9.10203L10.902 10.5162C11.2097 10.2085 11.3857 9.80621 11.3857 9.35713H9.38572ZM9.48777 9.10203L4.98777 13.602L6.40198 15.0162L10.902 10.5162L9.48777 9.10203ZM4.98777 13.602C5.00622 13.5836 5.04256 13.5542 5.09747 13.531C5.15304 13.5076 5.20505 13.5 5.24286 13.5V15.5C5.69194 15.5 6.09422 15.324 6.40198 15.0162L4.98777 13.602ZM5.24286 13.5C5.28068 13.5 5.33268 13.5076 5.38825 13.531C5.44317 13.5542 5.47951 13.5836 5.49796 13.602L4.08375 15.0162C4.3915 15.324 4.79378 15.5 5.24286 15.5V13.5ZM5.49796 13.602L0.997961 9.10203L-0.416253 10.5162L4.08375 15.0162L5.49796 13.602ZM0.997961 9.10203C1.01642 9.12049 1.04578 9.15682 1.06897 9.21174C1.09243 9.26731 1.10001 9.31931 1.10001 9.35713H-0.899994C-0.899994 9.80621 -0.724008 10.2085 -0.416253 10.5162L0.997961 9.10203ZM1.10001 9.35713C1.10001 9.39495 1.09243 9.44695 1.06897 9.50252C1.04578 9.55744 1.01642 9.59377 0.997961 9.61223L-0.416253 8.19801C-0.724008 8.50577 -0.899994 8.90805 -0.899994 9.35713H1.10001ZM0.997961 9.61223C0.979506 9.63068 0.943169 9.66005 0.888252 9.68324C0.832683 9.7067 0.780679 9.71427 0.742863 9.71427V7.71427C0.293783 7.71427 -0.108497 7.89026 -0.416253 8.19801L0.997961 9.61223ZM0.742863 9.71427H9.74286V7.71427H0.742863V9.71427ZM9.74286 9.71427C9.70505 9.71427 9.65304 9.7067 9.59748 9.68324C9.54256 9.66005 9.50622 9.63068 9.48777 9.61223L10.902 8.19801C10.5942 7.89026 10.1919 7.71427 9.74286 7.71427V9.71427ZM9.48777 5.75509C9.46931 5.73663 9.43995 5.7003 9.41676 5.64538C9.3933 5.58981 9.38572 5.53781 9.38572 5.49999H11.3857C11.3857 5.05091 11.2097 4.64863 10.902 4.34087L9.48777 5.75509ZM9.38572 5.49999C9.38572 5.46217 9.3933 5.41017 9.41676 5.3546C9.43995 5.29968 9.46931 5.26334 9.48777 5.24489L10.902 6.6591C11.2097 6.35135 11.3857 5.94907 11.3857 5.49999H9.38572ZM9.48777 5.24489C9.50622 5.22644 9.54256 5.19707 9.59748 5.17388C9.65304 5.15042 9.70505 5.14285 9.74286 5.14285V7.14285C10.1919 7.14285 10.5942 6.96686 10.902 6.6591L9.48777 5.24489ZM9.74286 5.14285H0.742863V7.14285H9.74286V5.14285ZM0.742863 5.14285C0.780679 5.14285 0.832683 5.15042 0.888252 5.17388C0.943169 5.19707 0.979506 5.22644 0.997961 5.24489L-0.416253 6.6591C-0.108497 6.96686 0.293783 7.14285 0.742863 7.14285V5.14285ZM0.997961 5.24489C1.01642 5.26335 1.04578 5.29968 1.06897 5.3546C1.09243 5.41017 1.10001 5.46217 1.10001 5.49999H-0.899994C-0.899994 5.94907 -0.724008 6.35135 -0.416253 6.6591L0.997961 5.24489ZM1.10001 5.49999C1.10001 5.53781 1.09243 5.58981 1.06897 5.64538C1.04578 5.70029 1.01642 5.73663 0.997961 5.75509L-0.416253 4.34087C-0.724008 4.64863 -0.899994 5.05091 -0.899994 5.49999H1.10001ZM0.997961 5.75509L5.49796 1.25509L4.08375 -0.159127L-0.416253 4.34087L0.997961 5.75509ZM5.49796 1.25509C5.47951 1.27354 5.44317 1.30291 5.38825 1.32609C5.33268 1.34956 5.28068 1.35713 5.24286 1.35713V-0.642868C4.79378 -0.642868 4.3915 -0.466883 4.08375 -0.159127L5.49796 1.25509ZM5.24286 1.35713C5.20505 1.35713 5.15304 1.34956 5.09747 1.32609C5.04256 1.30291 5.00622 1.27354 4.98777 1.25509L6.40198 -0.159127C6.09422 -0.466882 5.69194 -0.642868 5.24286 -0.642868V1.35713ZM4.98777 1.25509L9.48777 5.75509L10.902 4.34087L6.40198 -0.159127L4.98777 1.25509Z" fill="#272B30" mask="url(#path-1-inside-1_100_850)"/>
</svg>
