<svg width="308" height="96" viewBox="0 0 308 96" fill="none" xmlns="http://www.w3.org/2000/svg">
<path d="M9.786 54V46.412L6.51 52.25H5.74L2.45 46.412V54H1.19V44.06H2.52L6.118 50.514L9.73 44.06H11.046V54H9.786ZM16.2993 54.14C15.7486 54.14 15.2493 54.042 14.8013 53.846C14.3533 53.6407 13.9659 53.3653 13.6393 53.02C13.3126 52.6653 13.0606 52.2593 12.8833 51.802C12.7059 51.3447 12.6173 50.864 12.6173 50.36C12.6173 49.8467 12.7059 49.3613 12.8833 48.904C13.0606 48.4467 13.3126 48.0453 13.6393 47.7C13.9659 47.3453 14.3533 47.07 14.8013 46.874C15.2586 46.6687 15.7579 46.566 16.2993 46.566C16.8499 46.566 17.3493 46.6687 17.7973 46.874C18.2453 47.07 18.6326 47.3453 18.9593 47.7C19.2953 48.0453 19.5519 48.4467 19.7293 48.904C19.9066 49.3613 19.9953 49.8467 19.9953 50.36C19.9953 50.864 19.9066 51.3447 19.7293 51.802C19.5519 52.2593 19.2999 52.6653 18.9733 53.02C18.6466 53.3653 18.2546 53.6407 17.7973 53.846C17.3493 54.042 16.8499 54.14 16.2993 54.14ZM13.8773 50.374C13.8773 50.878 13.9846 51.3353 14.1993 51.746C14.4233 52.1567 14.7173 52.4833 15.0813 52.726C15.4453 52.9593 15.8513 53.076 16.2993 53.076C16.7473 53.076 17.1533 52.9547 17.5173 52.712C17.8906 52.4693 18.1846 52.1427 18.3993 51.732C18.6233 51.312 18.7353 50.85 18.7353 50.346C18.7353 49.842 18.6233 49.3847 18.3993 48.974C18.1846 48.5633 17.8906 48.2367 17.5173 47.994C17.1533 47.7513 16.7473 47.63 16.2993 47.63C15.8513 47.63 15.4453 47.756 15.0813 48.008C14.7173 48.2507 14.4233 48.5773 14.1993 48.988C13.9846 49.3987 13.8773 49.8607 13.8773 50.374ZM27.8301 54H26.5981V49.912C26.5981 49.1373 26.4768 48.5727 26.2341 48.218C26.0008 47.854 25.6415 47.672 25.1561 47.672C24.8201 47.672 24.4841 47.756 24.1481 47.924C23.8215 48.092 23.5275 48.3207 23.2661 48.61C23.0141 48.89 22.8321 49.2167 22.7201 49.59V54H21.4881V46.692H22.6081V48.26C22.8041 47.9147 23.0561 47.616 23.3641 47.364C23.6721 47.112 24.0221 46.916 24.4141 46.776C24.8061 46.636 25.2168 46.566 25.6461 46.566C26.0661 46.566 26.4161 46.6453 26.6961 46.804C26.9855 46.9533 27.2095 47.168 27.3681 47.448C27.5361 47.7187 27.6528 48.0407 27.7181 48.414C27.7928 48.7873 27.8301 49.1933 27.8301 49.632V54Z" fill="#1666AC"/>
<path d="M51.498 45.18H48.068V54H46.808V45.18H43.378V44.06H51.498V45.18ZM51.6246 51.074V46.692H52.8566V50.836C52.8566 51.5827 52.9872 52.1427 53.2486 52.516C53.5099 52.8893 53.8972 53.076 54.4106 53.076C54.7466 53.076 55.0686 53.006 55.3766 52.866C55.6939 52.7167 55.9786 52.5067 56.2306 52.236C56.4826 51.9653 56.6786 51.6433 56.8186 51.27V46.692H58.0506V52.6C58.0506 52.7493 58.0786 52.8613 58.1346 52.936C58.1999 53.0013 58.3026 53.0387 58.4426 53.048V54C58.3026 54.0187 58.1906 54.028 58.1066 54.028C58.0319 54.0373 57.9572 54.042 57.8826 54.042C57.6492 54.042 57.4486 53.972 57.2806 53.832C57.1126 53.6827 57.0239 53.5007 57.0146 53.286L56.9866 52.432C56.6692 52.9733 56.2399 53.3933 55.6986 53.692C55.1666 53.9907 54.5832 54.14 53.9486 54.14C53.1832 54.14 52.6046 53.8833 52.2126 53.37C51.8206 52.8473 51.6246 52.082 51.6246 51.074ZM63.3368 54.14C62.7861 54.14 62.2821 54.042 61.8248 53.846C61.3768 53.6407 60.9848 53.3653 60.6488 53.02C60.3221 52.6653 60.0654 52.2593 59.8788 51.802C59.7014 51.3447 59.6128 50.8593 59.6128 50.346C59.6128 49.6553 59.7714 49.0253 60.0888 48.456C60.4061 47.8867 60.8448 47.4293 61.4048 47.084C61.9741 46.7387 62.6228 46.566 63.3508 46.566C64.0881 46.566 64.7274 46.7433 65.2688 47.098C65.8194 47.4433 66.2441 47.9007 66.5428 48.47C66.8508 49.03 67.0048 49.6367 67.0048 50.29C67.0048 50.3833 67.0001 50.4767 66.9908 50.57C66.9908 50.654 66.9861 50.7193 66.9768 50.766H60.9148C60.9521 51.242 61.0828 51.6667 61.3068 52.04C61.5401 52.404 61.8388 52.6933 62.2028 52.908C62.5668 53.1133 62.9588 53.216 63.3788 53.216C63.8268 53.216 64.2468 53.104 64.6388 52.88C65.0401 52.656 65.3154 52.362 65.4648 51.998L66.5288 52.292C66.3701 52.6467 66.1321 52.964 65.8148 53.244C65.5068 53.524 65.1381 53.7433 64.7088 53.902C64.2888 54.0607 63.8314 54.14 63.3368 54.14ZM60.8728 49.912H65.8568C65.8194 49.436 65.6841 49.016 65.4508 48.652C65.2174 48.288 64.9188 48.0033 64.5548 47.798C64.1908 47.5927 63.7894 47.49 63.3508 47.49C62.9214 47.49 62.5248 47.5927 62.1608 47.798C61.7968 48.0033 61.4981 48.288 61.2648 48.652C61.0408 49.016 60.9101 49.436 60.8728 49.912ZM70.8802 54.14C70.2736 54.14 69.7042 54.042 69.1722 53.846C68.6402 53.6407 68.1829 53.3373 67.8002 52.936L68.2762 52.068C68.6962 52.46 69.1162 52.74 69.5362 52.908C69.9562 53.076 70.3856 53.16 70.8242 53.16C71.3282 53.16 71.7389 53.0667 72.0562 52.88C72.3736 52.684 72.5322 52.3993 72.5322 52.026C72.5322 51.7553 72.4482 51.5547 72.2802 51.424C72.1216 51.2933 71.8929 51.186 71.5942 51.102C71.2956 51.0087 70.9409 50.906 70.5302 50.794C70.0262 50.6447 69.6016 50.486 69.2562 50.318C68.9109 50.15 68.6496 49.94 68.4722 49.688C68.2949 49.436 68.2062 49.1187 68.2062 48.736C68.2062 48.2693 68.3276 47.8773 68.5702 47.56C68.8129 47.2333 69.1442 46.986 69.5642 46.818C69.9936 46.65 70.4789 46.566 71.0202 46.566C71.5616 46.566 72.0516 46.65 72.4902 46.818C72.9289 46.986 73.3069 47.2333 73.6242 47.56L73.0642 48.414C72.7749 48.1153 72.4576 47.896 72.1122 47.756C71.7669 47.6067 71.3796 47.532 70.9502 47.532C70.6982 47.532 70.4509 47.5647 70.2082 47.63C69.9656 47.686 69.7649 47.7933 69.6062 47.952C69.4476 48.1013 69.3682 48.316 69.3682 48.596C69.3682 48.8293 69.4289 49.016 69.5502 49.156C69.6809 49.2867 69.8676 49.3987 70.1102 49.492C70.3622 49.5853 70.6656 49.688 71.0202 49.8C71.5709 49.9587 72.0469 50.1173 72.4482 50.276C72.8589 50.4347 73.1762 50.64 73.4002 50.892C73.6242 51.144 73.7362 51.494 73.7362 51.942C73.7362 52.6327 73.4749 53.174 72.9522 53.566C72.4296 53.9487 71.7389 54.14 70.8802 54.14Z" fill="#1666AC"/>
<rect x="83.2704" y="22" width="41.1335" height="74" rx="20.5668" fill="#1A79CB"/>
<path d="M94.1199 44.116H95.3099L96.6259 47.574L97.9559 44.116H99.1459L97.4239 48.442L99.1319 52.544L102.492 44.06H103.864L99.7059 54H98.6139L96.6399 49.31L94.6519 54H93.5599L89.4159 44.06H90.7739L94.1479 52.544L95.8419 48.442L94.1199 44.116ZM107.244 54.14C106.694 54.14 106.19 54.042 105.732 53.846C105.284 53.6407 104.892 53.3653 104.556 53.02C104.23 52.6653 103.973 52.2593 103.786 51.802C103.609 51.3447 103.52 50.8593 103.52 50.346C103.52 49.6553 103.679 49.0253 103.996 48.456C104.314 47.8867 104.752 47.4293 105.312 47.084C105.882 46.7387 106.53 46.566 107.258 46.566C107.996 46.566 108.635 46.7433 109.176 47.098C109.727 47.4433 110.152 47.9007 110.45 48.47C110.758 49.03 110.912 49.6367 110.912 50.29C110.912 50.3833 110.908 50.4767 110.898 50.57C110.898 50.654 110.894 50.7193 110.884 50.766H104.822C104.86 51.242 104.99 51.6667 105.214 52.04C105.448 52.404 105.746 52.6933 106.11 52.908C106.474 53.1133 106.866 53.216 107.286 53.216C107.734 53.216 108.154 53.104 108.546 52.88C108.948 52.656 109.223 52.362 109.372 51.998L110.436 52.292C110.278 52.6467 110.04 52.964 109.722 53.244C109.414 53.524 109.046 53.7433 108.616 53.902C108.196 54.0607 107.739 54.14 107.244 54.14ZM104.78 49.912H109.764C109.727 49.436 109.592 49.016 109.358 48.652C109.125 48.288 108.826 48.0033 108.462 47.798C108.098 47.5927 107.697 47.49 107.258 47.49C106.829 47.49 106.432 47.5927 106.068 47.798C105.704 48.0033 105.406 48.288 105.172 48.652C104.948 49.016 104.818 49.436 104.78 49.912ZM111.806 50.36C111.806 49.6693 111.946 49.0393 112.226 48.47C112.515 47.8913 112.907 47.4293 113.402 47.084C113.906 46.7387 114.48 46.566 115.124 46.566C115.712 46.566 116.239 46.72 116.706 47.028C117.173 47.336 117.537 47.7093 117.798 48.148V43.78H119.03V52.6C119.03 52.7493 119.058 52.8613 119.114 52.936C119.179 53.0013 119.282 53.0387 119.422 53.048V54C119.189 54.0373 119.007 54.056 118.876 54.056C118.633 54.056 118.419 53.972 118.232 53.804C118.055 53.636 117.966 53.4493 117.966 53.244V52.628C117.677 53.0947 117.289 53.4633 116.804 53.734C116.319 54.0047 115.815 54.14 115.292 54.14C114.788 54.14 114.321 54.042 113.892 53.846C113.472 53.6407 113.103 53.3607 112.786 53.006C112.478 52.6513 112.235 52.25 112.058 51.802C111.89 51.3447 111.806 50.864 111.806 50.36ZM117.798 51.438V49.338C117.686 49.0207 117.504 48.736 117.252 48.484C117 48.2227 116.715 48.0173 116.398 47.868C116.09 47.7093 115.782 47.63 115.474 47.63C115.11 47.63 114.779 47.7093 114.48 47.868C114.191 48.0173 113.939 48.2227 113.724 48.484C113.519 48.736 113.36 49.0253 113.248 49.352C113.136 49.6787 113.08 50.0193 113.08 50.374C113.08 50.738 113.141 51.0833 113.262 51.41C113.393 51.7367 113.57 52.026 113.794 52.278C114.027 52.53 114.293 52.726 114.592 52.866C114.9 53.006 115.231 53.076 115.586 53.076C115.81 53.076 116.039 53.034 116.272 52.95C116.515 52.866 116.743 52.7493 116.958 52.6C117.173 52.4507 117.355 52.278 117.504 52.082C117.653 51.8767 117.751 51.662 117.798 51.438Z" fill="white"/>
<path d="M142.795 45.18H139.365V54H138.105V45.18H134.675V44.06H142.795V45.18ZM150.372 54H149.14V49.912C149.14 49.1653 149.005 48.6053 148.734 48.232C148.473 47.8587 148.095 47.672 147.6 47.672C147.283 47.672 146.961 47.756 146.634 47.924C146.317 48.092 146.037 48.3207 145.794 48.61C145.551 48.89 145.374 49.2167 145.262 49.59V54H144.03V43.78H145.262V48.26C145.551 47.7373 145.943 47.3267 146.438 47.028C146.942 46.72 147.483 46.566 148.062 46.566C148.501 46.566 148.865 46.6453 149.154 46.804C149.453 46.9533 149.691 47.168 149.868 47.448C150.045 47.728 150.171 48.0547 150.246 48.428C150.33 48.792 150.372 49.1933 150.372 49.632V54ZM152.218 51.074V46.692H153.45V50.836C153.45 51.5827 153.581 52.1427 153.842 52.516C154.103 52.8893 154.491 53.076 155.004 53.076C155.34 53.076 155.662 53.006 155.97 52.866C156.287 52.7167 156.572 52.5067 156.824 52.236C157.076 51.9653 157.272 51.6433 157.412 51.27V46.692H158.644V52.6C158.644 52.7493 158.672 52.8613 158.728 52.936C158.793 53.0013 158.896 53.0387 159.036 53.048V54C158.896 54.0187 158.784 54.028 158.7 54.028C158.625 54.0373 158.551 54.042 158.476 54.042C158.243 54.042 158.042 53.972 157.874 53.832C157.706 53.6827 157.617 53.5007 157.608 53.286L157.58 52.432C157.263 52.9733 156.833 53.3933 156.292 53.692C155.76 53.9907 155.177 54.14 154.542 54.14C153.777 54.14 153.198 53.8833 152.806 53.37C152.414 52.8473 152.218 52.082 152.218 51.074Z" fill="#1666AC"/>
<path d="M174.753 54V44.06H181.319V45.18H176.013V48.498H180.479V49.548H176.013V54H174.753ZM186.05 47.77C185.434 47.7793 184.888 47.938 184.412 48.246C183.946 48.5447 183.614 48.96 183.418 49.492V54H182.186V46.692H183.334V48.386C183.586 47.882 183.918 47.476 184.328 47.168C184.748 46.8507 185.187 46.6733 185.644 46.636C185.738 46.636 185.817 46.636 185.882 46.636C185.948 46.636 186.004 46.6407 186.05 46.65V47.77ZM187.272 54V46.692H188.504V54H187.272ZM187.272 45.32V43.78H188.504V45.32H187.272Z" fill="#1666AC"/>
<path d="M211.693 46.146C211.581 46.0153 211.431 45.8893 211.245 45.768C211.058 45.6467 210.848 45.5393 210.615 45.446C210.381 45.3433 210.125 45.264 209.845 45.208C209.574 45.1427 209.289 45.11 208.991 45.11C208.225 45.11 207.661 45.2547 207.297 45.544C206.933 45.8333 206.751 46.23 206.751 46.734C206.751 47.0887 206.844 47.3687 207.031 47.574C207.217 47.7793 207.502 47.9473 207.885 48.078C208.277 48.2087 208.771 48.344 209.369 48.484C210.059 48.6333 210.657 48.8153 211.161 49.03C211.665 49.2447 212.052 49.534 212.323 49.898C212.593 50.2527 212.729 50.7287 212.729 51.326C212.729 51.802 212.635 52.2173 212.449 52.572C212.271 52.9173 212.019 53.2067 211.693 53.44C211.366 53.664 210.983 53.832 210.545 53.944C210.106 54.0467 209.63 54.098 209.117 54.098C208.613 54.098 208.118 54.0467 207.633 53.944C207.157 53.832 206.704 53.6733 206.275 53.468C205.845 53.2627 205.444 53.006 205.071 52.698L205.673 51.634C205.822 51.7927 206.013 51.9513 206.247 52.11C206.489 52.2593 206.76 52.3993 207.059 52.53C207.367 52.6607 207.698 52.768 208.053 52.852C208.407 52.9267 208.771 52.964 209.145 52.964C209.854 52.964 210.405 52.838 210.797 52.586C211.189 52.3247 211.385 51.9467 211.385 51.452C211.385 51.0787 211.273 50.78 211.049 50.556C210.834 50.332 210.512 50.1453 210.083 49.996C209.653 49.8467 209.131 49.6973 208.515 49.548C207.843 49.38 207.278 49.198 206.821 49.002C206.363 48.7967 206.018 48.5307 205.785 48.204C205.561 47.8773 205.449 47.4527 205.449 46.93C205.449 46.2953 205.603 45.7587 205.911 45.32C206.219 44.8813 206.643 44.55 207.185 44.326C207.726 44.102 208.337 43.99 209.019 43.99C209.467 43.99 209.882 44.0367 210.265 44.13C210.657 44.2233 211.021 44.354 211.357 44.522C211.693 44.69 212.001 44.8907 212.281 45.124L211.693 46.146ZM213.616 51.886C213.616 51.4193 213.746 51.018 214.008 50.682C214.278 50.3367 214.647 50.0707 215.114 49.884C215.58 49.6973 216.122 49.604 216.738 49.604C217.064 49.604 217.41 49.632 217.774 49.688C218.138 49.7347 218.46 49.8093 218.74 49.912V49.38C218.74 48.82 218.572 48.3813 218.236 48.064C217.9 47.7373 217.424 47.574 216.808 47.574C216.406 47.574 216.019 47.6487 215.646 47.798C215.282 47.938 214.894 48.1433 214.484 48.414L214.036 47.546C214.512 47.2193 214.988 46.9767 215.464 46.818C215.94 46.65 216.434 46.566 216.948 46.566C217.881 46.566 218.618 46.8273 219.16 47.35C219.701 47.8633 219.972 48.582 219.972 49.506V52.6C219.972 52.7493 220 52.8613 220.056 52.936C220.121 53.0013 220.224 53.0387 220.364 53.048V54C220.242 54.0187 220.135 54.0327 220.042 54.042C219.958 54.0513 219.888 54.056 219.832 54.056C219.542 54.056 219.323 53.9767 219.174 53.818C219.034 53.6593 218.954 53.4913 218.936 53.314L218.908 52.852C218.59 53.2627 218.175 53.58 217.662 53.804C217.148 54.028 216.64 54.14 216.136 54.14C215.65 54.14 215.216 54.042 214.834 53.846C214.451 53.6407 214.152 53.37 213.938 53.034C213.723 52.6887 213.616 52.306 213.616 51.886ZM218.376 52.404C218.488 52.2733 218.576 52.1427 218.642 52.012C218.707 51.872 218.74 51.7553 218.74 51.662V50.752C218.45 50.64 218.147 50.556 217.83 50.5C217.512 50.4347 217.2 50.402 216.892 50.402C216.266 50.402 215.758 50.528 215.366 50.78C214.983 51.0227 214.792 51.3587 214.792 51.788C214.792 52.0213 214.852 52.25 214.974 52.474C215.104 52.6887 215.291 52.866 215.534 53.006C215.786 53.146 216.094 53.216 216.458 53.216C216.84 53.216 217.204 53.1413 217.55 52.992C217.895 52.8333 218.17 52.6373 218.376 52.404ZM225.667 53.636C225.564 53.6827 225.424 53.7433 225.247 53.818C225.07 53.8927 224.864 53.958 224.631 54.014C224.398 54.07 224.15 54.098 223.889 54.098C223.59 54.098 223.315 54.0467 223.063 53.944C222.811 53.832 222.61 53.664 222.461 53.44C222.312 53.2067 222.237 52.9173 222.237 52.572V47.658H221.243V46.692H222.237V44.256H223.469V46.692H225.107V47.658H223.469V52.194C223.488 52.4553 223.576 52.6513 223.735 52.782C223.894 52.9033 224.08 52.964 224.295 52.964C224.538 52.964 224.762 52.922 224.967 52.838C225.172 52.754 225.308 52.6933 225.373 52.656L225.667 53.636Z" fill="#1666AC"/>
<path d="M247.81 46.146C247.698 46.0153 247.548 45.8893 247.362 45.768C247.175 45.6467 246.965 45.5393 246.732 45.446C246.498 45.3433 246.242 45.264 245.962 45.208C245.691 45.1427 245.406 45.11 245.108 45.11C244.342 45.11 243.778 45.2547 243.414 45.544C243.05 45.8333 242.868 46.23 242.868 46.734C242.868 47.0887 242.961 47.3687 243.148 47.574C243.334 47.7793 243.619 47.9473 244.002 48.078C244.394 48.2087 244.888 48.344 245.486 48.484C246.176 48.6333 246.774 48.8153 247.278 49.03C247.782 49.2447 248.169 49.534 248.44 49.898C248.71 50.2527 248.846 50.7287 248.846 51.326C248.846 51.802 248.752 52.2173 248.566 52.572C248.388 52.9173 248.136 53.2067 247.81 53.44C247.483 53.664 247.1 53.832 246.662 53.944C246.223 54.0467 245.747 54.098 245.234 54.098C244.73 54.098 244.235 54.0467 243.75 53.944C243.274 53.832 242.821 53.6733 242.392 53.468C241.962 53.2627 241.561 53.006 241.188 52.698L241.79 51.634C241.939 51.7927 242.13 51.9513 242.364 52.11C242.606 52.2593 242.877 52.3993 243.176 52.53C243.484 52.6607 243.815 52.768 244.17 52.852C244.524 52.9267 244.888 52.964 245.262 52.964C245.971 52.964 246.522 52.838 246.914 52.586C247.306 52.3247 247.502 51.9467 247.502 51.452C247.502 51.0787 247.39 50.78 247.166 50.556C246.951 50.332 246.629 50.1453 246.2 49.996C245.77 49.8467 245.248 49.6973 244.632 49.548C243.96 49.38 243.395 49.198 242.938 49.002C242.48 48.7967 242.135 48.5307 241.902 48.204C241.678 47.8773 241.566 47.4527 241.566 46.93C241.566 46.2953 241.72 45.7587 242.028 45.32C242.336 44.8813 242.76 44.55 243.302 44.326C243.843 44.102 244.454 43.99 245.136 43.99C245.584 43.99 245.999 44.0367 246.382 44.13C246.774 44.2233 247.138 44.354 247.474 44.522C247.81 44.69 248.118 44.8907 248.398 45.124L247.81 46.146ZM250.237 51.074V46.692H251.469V50.836C251.469 51.5827 251.6 52.1427 251.861 52.516C252.122 52.8893 252.51 53.076 253.023 53.076C253.359 53.076 253.681 53.006 253.989 52.866C254.306 52.7167 254.591 52.5067 254.843 52.236C255.095 51.9653 255.291 51.6433 255.431 51.27V46.692H256.663V52.6C256.663 52.7493 256.691 52.8613 256.747 52.936C256.812 53.0013 256.915 53.0387 257.055 53.048V54C256.915 54.0187 256.803 54.028 256.719 54.028C256.644 54.0373 256.57 54.042 256.495 54.042C256.262 54.042 256.061 53.972 255.893 53.832C255.725 53.6827 255.636 53.5007 255.627 53.286L255.599 52.432C255.282 52.9733 254.852 53.3933 254.311 53.692C253.779 53.9907 253.196 54.14 252.561 54.14C251.796 54.14 251.217 53.8833 250.825 53.37C250.433 52.8473 250.237 52.082 250.237 51.074ZM265.057 54H263.825V49.912C263.825 49.1373 263.704 48.5727 263.461 48.218C263.228 47.854 262.869 47.672 262.383 47.672C262.047 47.672 261.711 47.756 261.375 47.924C261.049 48.092 260.755 48.3207 260.493 48.61C260.241 48.89 260.059 49.2167 259.947 49.59V54H258.715V46.692H259.835V48.26C260.031 47.9147 260.283 47.616 260.591 47.364C260.899 47.112 261.249 46.916 261.641 46.776C262.033 46.636 262.444 46.566 262.873 46.566C263.293 46.566 263.643 46.6453 263.923 46.804C264.213 46.9533 264.437 47.168 264.595 47.448C264.763 47.7187 264.88 48.0407 264.945 48.414C265.02 48.7873 265.057 49.1933 265.057 49.632V54Z" fill="#1666AC"/>
<path d="M289.695 54V46.412L286.419 52.25H285.649L282.359 46.412V54H281.099V44.06H282.429L286.027 50.514L289.639 44.06H290.955V54H289.695ZM296.208 54.14C295.657 54.14 295.158 54.042 294.71 53.846C294.262 53.6407 293.875 53.3653 293.548 53.02C293.221 52.6653 292.969 52.2593 292.792 51.802C292.615 51.3447 292.526 50.864 292.526 50.36C292.526 49.8467 292.615 49.3613 292.792 48.904C292.969 48.4467 293.221 48.0453 293.548 47.7C293.875 47.3453 294.262 47.07 294.71 46.874C295.167 46.6687 295.667 46.566 296.208 46.566C296.759 46.566 297.258 46.6687 297.706 46.874C298.154 47.07 298.541 47.3453 298.868 47.7C299.204 48.0453 299.461 48.4467 299.638 48.904C299.815 49.3613 299.904 49.8467 299.904 50.36C299.904 50.864 299.815 51.3447 299.638 51.802C299.461 52.2593 299.209 52.6653 298.882 53.02C298.555 53.3653 298.163 53.6407 297.706 53.846C297.258 54.042 296.759 54.14 296.208 54.14ZM293.786 50.374C293.786 50.878 293.893 51.3353 294.108 51.746C294.332 52.1567 294.626 52.4833 294.99 52.726C295.354 52.9593 295.76 53.076 296.208 53.076C296.656 53.076 297.062 52.9547 297.426 52.712C297.799 52.4693 298.093 52.1427 298.308 51.732C298.532 51.312 298.644 50.85 298.644 50.346C298.644 49.842 298.532 49.3847 298.308 48.974C298.093 48.5633 297.799 48.2367 297.426 47.994C297.062 47.7513 296.656 47.63 296.208 47.63C295.76 47.63 295.354 47.756 294.99 48.008C294.626 48.2507 294.332 48.5773 294.108 48.988C293.893 49.3987 293.786 49.8607 293.786 50.374ZM307.739 54H306.507V49.912C306.507 49.1373 306.386 48.5727 306.143 48.218C305.91 47.854 305.55 47.672 305.065 47.672C304.729 47.672 304.393 47.756 304.057 47.924C303.73 48.092 303.436 48.3207 303.175 48.61C302.923 48.89 302.741 49.2167 302.629 49.59V54H301.397V46.692H302.517V48.26C302.713 47.9147 302.965 47.616 303.273 47.364C303.581 47.112 303.931 46.916 304.323 46.776C304.715 46.636 305.126 46.566 305.555 46.566C305.975 46.566 306.325 46.6453 306.605 46.804C306.894 46.9533 307.118 47.168 307.277 47.448C307.445 47.7187 307.562 48.0407 307.627 48.414C307.702 48.7873 307.739 49.1933 307.739 49.632V54Z" fill="#DEE2E6"/>
<path d="M8.474 75.464C8.474 76.0893 8.62333 76.654 8.922 77.158C9.23 77.6527 9.64533 78.0493 10.168 78.348C10.7 78.6373 11.288 78.782 11.932 78.782C12.2493 78.782 12.5387 78.74 12.8 78.656C13.0707 78.5627 13.3087 78.432 13.514 78.264C13.7287 78.096 13.8967 77.9047 14.018 77.69C14.0087 78.2873 13.9153 78.8007 13.738 79.23C13.57 79.65 13.332 79.972 13.024 80.196C12.7253 80.42 12.366 80.532 11.946 80.532C11.5353 80.532 11.148 80.4293 10.784 80.224C10.4293 80.028 10.14 79.7573 9.916 79.412L8.838 80.588C9.202 81.092 9.65 81.4793 10.182 81.75C10.714 82.0207 11.2927 82.156 11.918 82.156C12.702 82.156 13.3833 81.9413 13.962 81.512C14.5407 81.0827 14.984 80.4527 15.292 79.622C15.6093 78.7913 15.768 77.774 15.768 76.57C15.768 75.6087 15.6187 74.792 15.32 74.12C15.0213 73.4387 14.5967 72.916 14.046 72.552C13.5047 72.188 12.856 72.006 12.1 72.006C11.4187 72.006 10.8027 72.16 10.252 72.468C9.70133 72.776 9.26733 73.1913 8.95 73.714C8.63267 74.2367 8.474 74.82 8.474 75.464ZM12.1 73.588C12.4267 73.588 12.73 73.6767 13.01 73.854C13.29 74.022 13.514 74.2507 13.682 74.54C13.85 74.82 13.934 75.128 13.934 75.464C13.934 75.8 13.85 76.108 13.682 76.388C13.514 76.6587 13.29 76.878 13.01 77.046C12.7393 77.2047 12.436 77.284 12.1 77.284C11.764 77.284 11.456 77.2047 11.176 77.046C10.896 76.878 10.672 76.6587 10.504 76.388C10.3453 76.108 10.266 75.8 10.266 75.464C10.266 75.1187 10.35 74.806 10.518 74.526C10.686 74.246 10.91 74.022 11.19 73.854C11.47 73.6767 11.7733 73.588 12.1 73.588Z" fill="#6A7178"/>
<path d="M56.7428 78.306V80H51.0588V78.306H53.0468V74.064C52.9628 74.176 52.8322 74.2927 52.6548 74.414C52.4775 74.526 52.2768 74.6333 52.0528 74.736C51.8288 74.8387 51.6048 74.9227 51.3808 74.988C51.1568 75.0533 50.9562 75.086 50.7788 75.086V73.336C50.9468 73.336 51.1475 73.2847 51.3808 73.182C51.6235 73.07 51.8615 72.9393 52.0948 72.79C52.3375 72.6407 52.5428 72.496 52.7108 72.356C52.8882 72.2067 53.0002 72.09 53.0468 72.006H54.9648V78.306H56.7428ZM64.9908 75.898C64.9908 76.7193 64.8321 77.452 64.5148 78.096C64.2068 78.7307 63.7775 79.23 63.2268 79.594C62.6855 79.958 62.0695 80.14 61.3788 80.14C60.6881 80.14 60.0675 79.958 59.5168 79.594C58.9755 79.23 58.5461 78.7307 58.2288 78.096C57.9208 77.452 57.7668 76.7193 57.7668 75.898C57.7668 75.0767 57.9208 74.3487 58.2288 73.714C58.5461 73.07 58.9755 72.566 59.5168 72.202C60.0675 71.8287 60.6881 71.642 61.3788 71.642C62.0695 71.642 62.6855 71.8287 63.2268 72.202C63.7775 72.566 64.2068 73.07 64.5148 73.714C64.8321 74.3487 64.9908 75.0767 64.9908 75.898ZM63.1008 75.898C63.1008 75.394 63.0261 74.9553 62.8768 74.582C62.7368 74.1993 62.5361 73.9007 62.2748 73.686C62.0135 73.4713 61.7148 73.364 61.3788 73.364C61.0335 73.364 60.7301 73.4713 60.4688 73.686C60.2075 73.9007 60.0021 74.1993 59.8528 74.582C59.7128 74.9553 59.6428 75.394 59.6428 75.898C59.6428 76.402 59.7128 76.8407 59.8528 77.214C60.0021 77.5873 60.2075 77.8813 60.4688 78.096C60.7301 78.3107 61.0335 78.418 61.3788 78.418C61.7148 78.418 62.0088 78.3107 62.2608 78.096C62.5221 77.8813 62.7275 77.5873 62.8768 77.214C63.0261 76.8313 63.1008 76.3927 63.1008 75.898Z" fill="#6A7178"/>
<path d="M103.896 78.306V80H98.2119V78.306H100.2V74.064C100.116 74.176 99.9853 74.2927 99.8079 74.414C99.6306 74.526 99.4299 74.6333 99.2059 74.736C98.9819 74.8387 98.7579 74.9227 98.5339 74.988C98.3099 75.0533 98.1093 75.086 97.9319 75.086V73.336C98.0999 73.336 98.3006 73.2847 98.5339 73.182C98.7766 73.07 99.0146 72.9393 99.2479 72.79C99.4906 72.6407 99.6959 72.496 99.8639 72.356C100.041 72.2067 100.153 72.09 100.2 72.006H102.118V78.306H103.896ZM110.814 78.306V80H105.13V78.306H107.118V74.064C107.034 74.176 106.903 74.2927 106.726 74.414C106.549 74.526 106.348 74.6333 106.124 74.736C105.9 74.8387 105.676 74.9227 105.452 74.988C105.228 75.0533 105.027 75.086 104.85 75.086V73.336C105.018 73.336 105.219 73.2847 105.452 73.182C105.695 73.07 105.933 72.9393 106.166 72.79C106.409 72.6407 106.614 72.496 106.782 72.356C106.959 72.2067 107.071 72.09 107.118 72.006H109.036V78.306H110.814Z" fill="white"/>
<path fill-rule="evenodd" clip-rule="evenodd" d="M112.365 69C113.473 69 114.371 68.1046 114.371 67C114.371 65.8954 113.473 65 112.365 65C111.257 65 110.358 65.8954 110.358 67C110.358 68.1046 111.257 69 112.365 69Z" fill="white"/>
<path d="M145.029 78.306V80H139.345V78.306H141.333V74.064C141.249 74.176 141.119 74.2927 140.941 74.414C140.764 74.526 140.563 74.6333 140.339 74.736C140.115 74.8387 139.891 74.9227 139.667 74.988C139.443 75.0533 139.243 75.086 139.065 75.086V73.336C139.233 73.336 139.434 73.2847 139.667 73.182C139.91 73.07 140.148 72.9393 140.381 72.79C140.624 72.6407 140.829 72.496 140.997 72.356C141.175 72.2067 141.287 72.09 141.333 72.006H143.251V78.306H145.029ZM145.899 80C145.899 79.58 145.932 79.202 145.997 78.866C146.063 78.53 146.175 78.2173 146.333 77.928C146.501 77.6387 146.725 77.368 147.005 77.116C147.295 76.8547 147.659 76.6027 148.097 76.36C148.48 76.1547 148.816 75.9773 149.105 75.828C149.395 75.6693 149.637 75.5247 149.833 75.394C150.039 75.2633 150.193 75.1327 150.295 75.002C150.398 74.862 150.449 74.7033 150.449 74.526C150.449 74.3393 150.398 74.1713 150.295 74.022C150.193 73.8633 150.048 73.7373 149.861 73.644C149.675 73.5507 149.441 73.504 149.161 73.504C148.937 73.504 148.727 73.532 148.531 73.588C148.345 73.644 148.167 73.7233 147.999 73.826C147.841 73.9287 147.691 74.0453 147.551 74.176C147.411 74.2973 147.285 74.428 147.173 74.568L145.983 73.196C146.114 73.0653 146.287 72.9253 146.501 72.776C146.725 72.6173 146.987 72.4727 147.285 72.342C147.593 72.202 147.929 72.09 148.293 72.006C148.667 71.9127 149.063 71.866 149.483 71.866C150.118 71.866 150.659 71.9687 151.107 72.174C151.555 72.37 151.896 72.6453 152.129 73C152.372 73.3547 152.493 73.77 152.493 74.246C152.493 74.5727 152.433 74.862 152.311 75.114C152.19 75.366 152.036 75.59 151.849 75.786C151.663 75.9727 151.457 76.1407 151.233 76.29C151.019 76.4393 150.809 76.57 150.603 76.682C150.314 76.8313 150.053 76.9713 149.819 77.102C149.586 77.2233 149.381 77.3493 149.203 77.48C149.026 77.6013 148.867 77.7273 148.727 77.858C148.597 77.9887 148.48 78.138 148.377 78.306H152.647V80H145.899Z" fill="#6A7178"/>
<path d="M180.143 78.306V80H174.459V78.306H176.447V74.064C176.363 74.176 176.233 74.2927 176.055 74.414C175.878 74.526 175.677 74.6333 175.453 74.736C175.229 74.8387 175.005 74.9227 174.781 74.988C174.557 75.0533 174.357 75.086 174.179 75.086V73.336C174.347 73.336 174.548 73.2847 174.781 73.182C175.024 73.07 175.262 72.9393 175.495 72.79C175.738 72.6407 175.943 72.496 176.111 72.356C176.289 72.2067 176.401 72.09 176.447 72.006H178.365V78.306H180.143ZM185.815 76.696C186.207 76.7613 186.548 76.9107 186.837 77.144C187.127 77.368 187.351 77.6573 187.509 78.012C187.677 78.3667 187.761 78.7587 187.761 79.188C187.761 79.7667 187.612 80.2707 187.313 80.7C187.015 81.1293 186.59 81.4607 186.039 81.694C185.498 81.9367 184.859 82.058 184.121 82.058C183.412 82.058 182.782 81.9413 182.231 81.708C181.69 81.484 181.237 81.1527 180.873 80.714L181.937 79.384C182.18 79.6827 182.469 79.916 182.805 80.084C183.151 80.2613 183.571 80.35 184.065 80.35C184.635 80.35 185.069 80.2333 185.367 80C185.666 79.776 185.815 79.4353 185.815 78.978C185.815 78.4927 185.643 78.1193 185.297 77.858C184.952 77.5967 184.429 77.466 183.729 77.466H183.337V76.066H183.771C184.341 76.066 184.784 75.9353 185.101 75.674C185.428 75.4127 185.591 75.086 185.591 74.694C185.591 74.442 185.531 74.232 185.409 74.064C185.288 73.896 185.12 73.77 184.905 73.686C184.7 73.602 184.457 73.56 184.177 73.56C183.757 73.56 183.375 73.658 183.029 73.854C182.684 74.05 182.404 74.3253 182.189 74.68L181.013 73.364C181.209 73.0747 181.475 72.8273 181.811 72.622C182.157 72.4073 182.549 72.2393 182.987 72.118C183.435 71.9967 183.902 71.936 184.387 71.936C185.022 71.936 185.577 72.0387 186.053 72.244C186.539 72.4493 186.917 72.7387 187.187 73.112C187.458 73.4853 187.593 73.9193 187.593 74.414C187.593 74.778 187.519 75.1233 187.369 75.45C187.22 75.7767 187.01 76.052 186.739 76.276C186.478 76.4907 186.17 76.6307 185.815 76.696Z" fill="#6A7178"/>
<path fill-rule="evenodd" clip-rule="evenodd" d="M191.622 69C192.73 69 193.629 68.1046 193.629 67C193.629 65.8954 192.73 65 191.622 65C190.514 65 189.616 65.8954 189.616 67C189.616 68.1046 190.514 69 191.622 69Z" fill="#1A79CB"/>
<path d="M214.254 78.306V80H208.57V78.306H210.558V74.064C210.474 74.176 210.344 74.2927 210.166 74.414C209.989 74.526 209.788 74.6333 209.564 74.736C209.34 74.8387 209.116 74.9227 208.892 74.988C208.668 75.0533 208.468 75.086 208.29 75.086V73.336C208.458 73.336 208.659 73.2847 208.892 73.182C209.135 73.07 209.373 72.9393 209.606 72.79C209.849 72.6407 210.054 72.496 210.222 72.356C210.4 72.2067 210.512 72.09 210.558 72.006H212.476V78.306H214.254ZM218.96 81.778V79.692H214.872V78.026L219.562 72.006H220.836V78.012H222.068V79.692H220.836V81.778H218.96ZM216.748 78.012H219.17V74.848L216.748 78.012Z" fill="#6A7178"/>
<path d="M251.375 78.306V80H245.691V78.306H247.679V74.064C247.595 74.176 247.464 74.2927 247.287 74.414C247.109 74.526 246.909 74.6333 246.685 74.736C246.461 74.8387 246.237 74.9227 246.013 74.988C245.789 75.0533 245.588 75.086 245.411 75.086V73.336C245.579 73.336 245.779 73.2847 246.013 73.182C246.255 73.07 246.493 72.9393 246.727 72.79C246.969 72.6407 247.175 72.496 247.343 72.356C247.52 72.2067 247.632 72.09 247.679 72.006H249.597V78.306H251.375ZM255.381 82.086C254.662 82.086 254.013 81.932 253.435 81.624C252.856 81.316 252.417 80.896 252.119 80.364L253.197 79.244C253.458 79.608 253.785 79.8973 254.177 80.112C254.569 80.3267 254.975 80.434 255.395 80.434C255.731 80.434 256.025 80.364 256.277 80.224C256.538 80.084 256.743 79.888 256.893 79.636C257.042 79.384 257.117 79.0947 257.117 78.768C257.117 78.4413 257.047 78.1567 256.907 77.914C256.767 77.6713 256.575 77.4847 256.333 77.354C256.09 77.214 255.815 77.144 255.507 77.144C255.199 77.144 254.909 77.214 254.639 77.354C254.377 77.4847 254.167 77.676 254.009 77.928H252.371L253.519 72.006H258.419V73.714H254.877L254.471 75.94C254.592 75.828 254.76 75.7347 254.975 75.66C255.189 75.576 255.455 75.534 255.773 75.534C256.398 75.534 256.958 75.6693 257.453 75.94C257.947 76.2107 258.335 76.5887 258.615 77.074C258.895 77.55 259.035 78.1007 259.035 78.726C259.035 79.3887 258.876 79.972 258.559 80.476C258.241 80.9893 257.807 81.386 257.257 81.666C256.706 81.946 256.081 82.086 255.381 82.086Z" fill="#6A7178"/>
<path d="M292.508 78.306V80H286.824V78.306H288.812V74.064C288.728 74.176 288.598 74.2927 288.42 74.414C288.243 74.526 288.042 74.6333 287.818 74.736C287.594 74.8387 287.37 74.9227 287.146 74.988C286.922 75.0533 286.722 75.086 286.544 75.086V73.336C286.712 73.336 286.913 73.2847 287.146 73.182C287.389 73.07 287.627 72.9393 287.86 72.79C288.103 72.6407 288.308 72.496 288.476 72.356C288.654 72.2067 288.766 72.09 288.812 72.006H290.73V78.306H292.508ZM300.784 76.682C300.784 76.0567 300.63 75.4967 300.322 75.002C300.024 74.498 299.613 74.1013 299.09 73.812C298.568 73.5133 297.975 73.364 297.312 73.364C297.004 73.364 296.715 73.4107 296.444 73.504C296.174 73.588 295.936 73.714 295.73 73.882C295.525 74.0407 295.357 74.232 295.226 74.456C295.245 73.8587 295.338 73.35 295.506 72.93C295.674 72.5007 295.912 72.174 296.22 71.95C296.528 71.726 296.892 71.614 297.312 71.614C297.723 71.614 298.106 71.7167 298.46 71.922C298.815 72.118 299.104 72.3887 299.328 72.734L300.406 71.558C300.042 71.054 299.594 70.6667 299.062 70.396C298.54 70.1253 297.966 69.99 297.34 69.99C296.556 69.99 295.875 70.2047 295.296 70.634C294.718 71.054 294.27 71.684 293.952 72.524C293.644 73.3547 293.49 74.372 293.49 75.576C293.49 76.528 293.64 77.3447 293.938 78.026C294.237 78.7073 294.657 79.23 295.198 79.594C295.749 79.958 296.398 80.14 297.144 80.14C297.835 80.14 298.451 79.986 298.992 79.678C299.543 79.37 299.977 78.9547 300.294 78.432C300.621 77.9093 300.784 77.326 300.784 76.682ZM297.144 78.558C296.827 78.558 296.528 78.474 296.248 78.306C295.968 78.1287 295.744 77.9 295.576 77.62C295.408 77.3307 295.324 77.018 295.324 76.682C295.324 76.346 295.404 76.0427 295.562 75.772C295.73 75.492 295.954 75.2727 296.234 75.114C296.514 74.946 296.822 74.862 297.158 74.862C297.494 74.862 297.798 74.946 298.068 75.114C298.348 75.2727 298.572 75.492 298.74 75.772C298.908 76.0427 298.992 76.346 298.992 76.682C298.992 77.018 298.908 77.3307 298.74 77.62C298.572 77.9 298.348 78.1287 298.068 78.306C297.788 78.474 297.48 78.558 297.144 78.558Z" fill="#DEE2E6"/>
<path fill-rule="evenodd" clip-rule="evenodd" d="M61.6948 9.40508C61.8221 9.53231 61.8857 9.68298 61.8857 9.85709C61.8857 10.0312 61.8221 10.1819 61.6948 10.3091L57.1948 14.8091C57.0676 14.9363 56.9169 14.9999 56.7428 14.9999C56.5687 14.9999 56.4181 14.9363 56.2908 14.8091L51.7908 10.3091C51.6636 10.1819 51.6 10.0312 51.6 9.85709C51.6 9.68298 51.6636 9.53231 51.7908 9.40508C51.9181 9.27785 52.0687 9.21423 52.2428 9.21423H61.2428C61.4169 9.21423 61.5676 9.27785 61.6948 9.40508Z" fill="#0E426F"/>
<path d="M9.142 16V9.476L6.594 14.334H5.516L2.968 9.476V16H1.036V6.06H3.108L6.048 11.716L9.016 6.06H11.074V16H9.142ZM12.3813 13.83C12.3813 13.354 12.5119 12.9387 12.7733 12.584C13.0439 12.22 13.4173 11.94 13.8933 11.744C14.3693 11.548 14.9153 11.45 15.5312 11.45C15.8393 11.45 16.1519 11.4733 16.4693 11.52C16.7866 11.5667 17.0619 11.6413 17.2953 11.744V11.352C17.2953 10.8853 17.1553 10.526 16.8753 10.274C16.6046 10.022 16.1986 9.896 15.6573 9.896C15.2559 9.896 14.8733 9.966 14.5093 10.106C14.1453 10.246 13.7626 10.4513 13.3613 10.722L12.7593 9.49C13.2446 9.17267 13.7393 8.93467 14.2433 8.776C14.7566 8.61733 15.2933 8.538 15.8533 8.538C16.8986 8.538 17.7106 8.79933 18.2893 9.322C18.8773 9.84467 19.1713 10.5913 19.1713 11.562V13.9C19.1713 14.096 19.2039 14.236 19.2693 14.32C19.3439 14.404 19.4606 14.4553 19.6193 14.474V16C19.4513 16.028 19.2973 16.0513 19.1573 16.07C19.0266 16.0887 18.9146 16.098 18.8213 16.098C18.4479 16.098 18.1633 16.014 17.9673 15.846C17.7806 15.678 17.6639 15.4727 17.6173 15.23L17.5753 14.852C17.2579 15.2627 16.8613 15.58 16.3853 15.804C15.9093 16.028 15.4239 16.14 14.9293 16.14C14.4439 16.14 14.0053 16.042 13.6133 15.846C13.2306 15.6407 12.9273 15.3653 12.7033 15.02C12.4886 14.6653 12.3813 14.2687 12.3813 13.83ZM16.9453 14.208C17.0479 14.096 17.1319 13.984 17.1973 13.872C17.2626 13.76 17.2953 13.6573 17.2953 13.564V12.822C17.0713 12.7287 16.8286 12.6587 16.5673 12.612C16.3059 12.556 16.0586 12.528 15.8253 12.528C15.3399 12.528 14.9386 12.6353 14.6213 12.85C14.3133 13.0553 14.1593 13.3307 14.1593 13.676C14.1593 13.8627 14.2106 14.04 14.3133 14.208C14.4159 14.376 14.5653 14.5113 14.7613 14.614C14.9573 14.7167 15.1906 14.768 15.4613 14.768C15.7413 14.768 16.0166 14.7167 16.2873 14.614C16.5579 14.502 16.7773 14.3667 16.9453 14.208ZM25.2923 10.288C24.723 10.288 24.2143 10.4 23.7663 10.624C23.3183 10.8387 22.9963 11.1513 22.8003 11.562V16H20.9243V8.664H22.6463V10.232C22.9076 9.728 23.239 9.33133 23.6403 9.042C24.0416 8.75267 24.4663 8.594 24.9143 8.566C25.017 8.566 25.0963 8.566 25.1523 8.566C25.2083 8.566 25.255 8.57067 25.2923 8.58V10.288ZM29.6587 16.14C29.0613 16.14 28.5247 16.042 28.0487 15.846C27.5727 15.6407 27.1667 15.3607 26.8307 15.006C26.4947 14.642 26.2333 14.2313 26.0467 13.774C25.8693 13.3167 25.7807 12.836 25.7807 12.332C25.7807 11.6413 25.9347 11.0113 26.2427 10.442C26.56 9.86333 27.008 9.40133 27.5867 9.056C28.1653 8.71067 28.8513 8.538 29.6447 8.538C30.438 8.538 31.1193 8.71067 31.6887 9.056C32.258 9.40133 32.6827 9.854 32.9627 10.414L31.1287 10.974C30.97 10.7033 30.76 10.498 30.4987 10.358C30.2373 10.2087 29.948 10.134 29.6307 10.134C29.276 10.134 28.9493 10.2273 28.6507 10.414C28.3613 10.5913 28.1327 10.848 27.9647 11.184C27.7967 11.5107 27.7127 11.8933 27.7127 12.332C27.7127 12.7613 27.7967 13.144 27.9647 13.48C28.142 13.8067 28.3753 14.068 28.6647 14.264C28.954 14.4507 29.276 14.544 29.6307 14.544C29.8547 14.544 30.0647 14.5067 30.2607 14.432C30.466 14.3573 30.648 14.2547 30.8067 14.124C30.9653 13.9933 31.082 13.844 31.1567 13.676L32.9907 14.236C32.8227 14.6 32.5753 14.9267 32.2487 15.216C31.9313 15.5053 31.5533 15.734 31.1147 15.902C30.6853 16.0607 30.2 16.14 29.6587 16.14ZM40.963 16H39.087V11.884C39.087 11.3147 38.975 10.89 38.751 10.61C38.5363 10.33 38.2377 10.19 37.855 10.19C37.631 10.19 37.393 10.2553 37.141 10.386C36.889 10.5167 36.6603 10.6987 36.455 10.932C36.259 11.156 36.1143 11.4173 36.021 11.716V16H34.145V5.78H36.021V10.022C36.2917 9.55533 36.6603 9.19133 37.127 8.93C37.5937 8.66867 38.1023 8.538 38.653 8.538C39.129 8.538 39.5163 8.622 39.815 8.79C40.1137 8.94867 40.347 9.168 40.515 9.448C40.683 9.71867 40.7997 10.0267 40.865 10.372C40.9303 10.708 40.963 11.058 40.963 11.422V16Z" fill="#0E426F"/>
</svg>
